<?xml version="1.0" encoding="UTF-8"?>
<svg height="16px" viewBox="0 0 16 16" width="16px" xmlns="http://www.w3.org/2000/svg">
    <g fill="#2e3436">
        <path d="m 2 2 c -0.554688 0 -1 0.445313 -1 1 v 2 c 0 0.554688 0.445313 1 1 1 h 12 c 0.554688 0 1 -0.445313 1 -1 v -2 c 0 -0.554688 -0.445313 -1 -1 -1 z m 1.5 1.5 h 1 v 1 h -1 z m 8 0 h 3 v 1 h -3 z"/>
        <path d="m 2 7 c -0.554688 0 -1 0.445313 -1 1 v 2 c 0 0.554688 0.445313 1 1 1 h 12 c 0.554688 0 1 -0.445313 1 -1 v -2 c 0 -0.554688 -0.445313 -1 -1 -1 z m 1.5 1.5 h 1 v 1 h -1 z m 8 0 h 3 v 1 h -3 z"/>
        <path d="m 2 12 c -0.554688 0 -1 0.445313 -1 1 v 1 c 0 0.554688 0.445313 1 1 1 h 12 c 0.554688 0 1 -0.445313 1 -1 v -1 c 0 -0.554688 -0.445313 -1 -1 -1 z m 1.5 1 h 1 v 1 h -1 z m 8 0 h 3 v 1 h -3 z"/>
    </g>
</svg>
